<svg id="main_svg"
    xmlns="http://www.w3.org/2000/svg" width="600" height="600">
    <g id="svg_g_bezier_cells">
        <path d="M261.441955178236,28.637788768137934 C273.5003482295524,57.27557753627587 273.5003482295524,57.27557753627587 281.5637922124426,59.880453684712016 C289.6272361953328,62.485329833148164 289.6272361953328,62.485329833148164 335.6671076376275,37.340660955462155 C381.70697907992223,12.195992077776149 381.70697907992223,12.195992077776149 381.9407121478698,6.097996038888074 C382.1744452158174,0 382.1744452158174,0 315.7790036713685,0 C249.38356212691963,0 249.38356212691963,0 261.441955178236,28.637788768137934 Z" fill="#70D6FF" />
        <path d="M396.43065307204756,32.62109392763343 C411.15432706417283,53.04619577749083 411.15432706417283,53.04619577749083 453.7304149373738,52.162976778447664 C496.30650281057467,51.2797577794045 496.30650281057467,51.2797577794045 506.8232298149945,25.63987888970225 C517.3399568194143,0 517.3399568194143,0 449.75720101761584,0 C382.1744452158174,0 382.1744452158174,0 381.9407121478698,6.097996038888016 C381.7069790799223,12.195992077776031 381.7069790799223,12.195992077776031 396.43065307204756,32.62109392763343 Z" fill="#FF70A6" />
        <path d="M82.81648185869138,50.5675125604852 C95.93976480722449,101.1350251209704 95.93976480722449,101.1350251209704 111.47594001862967,95.94026596360783 C127.01211523003487,90.74550680624527 127.01211523003487,90.74550680624527 154.87867940143215,45.37275340312264 C182.74524357282942,0 182.74524357282942,0 126.21922124149384,0 C69.69319891015826,0 69.69319891015826,0 82.81648185869138,50.5675125604852 Z" fill="#FF9770" />
        <path d="M46.75609530501637,104.65689716374347 C93.51219061003275,104.16183110769032 95.9397648072245,101.1350251209704 82.81648185869139,50.5675125604852 C69.69319891015826,0 69.69319891015826,0 34.84659945507913,0 C0,0 0,0 0,52.57598160989831 C0,105.15196321979661 0,105.15196321979661 46.75609530501637,104.65689716374347 Z" fill="#FF70A6" />
        <path d="M174.69465790127666,102.72896012311739 C222.3772005725184,114.71241343998945 222.3772005725184,114.71241343998945 247.93877440103543,85.99399548813271 C273.50034822955246,57.27557753627598 273.50034822955246,57.27557753627598 261.44195517823607,28.63778876813799 C249.38356212691966,0 249.38356212691966,0 216.06440284987457,0 C182.74524357282945,0 182.74524357282945,0 154.87867940143218,45.37275340312266 C127.0121152300349,90.74550680624532 127.0121152300349,90.74550680624532 174.69465790127666,102.72896012311739 Z" fill="#FFD670" />
        <path d="M498.4647661761527,58.595165013307565 C500.62302954173083,65.91057224721047 500.62302954173083,65.91057224721047 529.1218234571153,97.34684611735364 C557.6206173724997,128.7831199874968 557.6206173724997,128.7831199874968 578.8103086862499,127.09323513956777 C600,125.40335029163873 600,125.40335029163873 600,62.701675145819365 C600.0000000000001,0 600.0000000000001,0 558.6699784097073,0 C517.3399568194144,0 517.3399568194144,0 506.82322981499453,25.639878889702327 C496.3065028105746,51.279757779404655 496.3065028105746,51.279757779404655 498.4647661761527,58.595165013307565 Z" fill="#70D6FF" />
        <path d="M308.61158218036746,84.03142651764834 C327.5959281654023,105.5775232021485 327.5959281654023,105.5775232021485 363.00642971337714,95.295464700162 C398.416931261352,85.01340619817549 398.416931261352,85.01340619817549 404.78562916276235,69.0298009878332 C411.1543270641728,53.046195777490894 411.1543270641728,53.046195777490894 396.43065307204745,32.62109392763351 C381.7069790799222,12.195992077776133 381.7069790799222,12.195992077776133 335.6671076376274,37.340660955462155 C289.62723619533256,62.48532983314818 289.62723619533256,62.48532983314818 308.61158218036746,84.03142651764834 Z" fill="#E9FF70" />
        <path d="M413.58571706897584,123.86414358819451 C428.75450287659976,162.71488097821342 429.7744062453828,162.5360990179458 465.1987178935568,114.2233356325782 C500.62302954173083,65.9105722472106 500.62302954173083,65.9105722472106 498.4647661761527,58.59516501330754 C496.3065028105745,51.27975777940449 496.3065028105745,51.27975777940449 453.7304149373737,52.162976778447664 C411.15432706417295,53.04619577749084 411.15432706417295,53.04619577749084 404.78562916276246,69.02980098783323 C398.4169312613519,85.0134061981756 398.4169312613519,85.0134061981756 413.58571706897584,123.86414358819451 Z" fill="#FF9770" />
        <path d="M331.29552993209205,146.1913659051321 C334.9951316987819,186.80520860811563 334.9951316987819,186.80520860811563 342.27594915209295,189.65818953848 C349.55676660540394,192.51117046884437 349.55676660540394,192.51117046884437 378.17086146600224,187.44619280801186 C406.78495632660054,182.38121514717938 406.78495632660054,182.38121514717938 417.76972960159924,172.54804806269385 C428.7545028765979,162.71488097820836 428.7545028765979,162.71488097820836 413.5857170689749,123.86414358819198 C398.4169312613519,85.0134061981756 398.4169312613519,85.0134061981756 363.0064297133771,95.29546470016209 C327.5959281654022,105.57752320214856 327.5959281654022,105.57752320214856 331.29552993209205,146.1913659051321 Z" fill="#FF70A6" />
        <path d="M228.4909916260301,143.0511142652341 C234.6047826795419,171.38981509047875 234.6047826795419,171.38981509047875 276.11769828953686,181.65568074409276 C317.6306138995318,191.9215463977068 317.6306138995318,191.9215463977068 326.3128727991568,189.3633775029113 C334.9951316987819,186.80520860811583 334.9951316987819,186.80520860811583 331.29552993209205,146.19136590513216 C327.5959281654022,105.5775232021485 327.5959281654022,105.5775232021485 308.6115821803673,84.03142651764828 C289.6272361953324,62.48532983314807 289.6272361953324,62.48532983314807 281.5637922124424,59.88045368471199 C273.50034822955246,57.275577536275904 273.50034822955246,57.275577536275904 247.9387744010354,85.99399548813267 C222.37720057251832,114.71241343998945 222.37720057251832,114.71241343998945 228.4909916260301,143.0511142652341 Z" fill="#FFD670" />
        <path d="M468.5624863766101,174.09053167689098 C507.35056650783224,185.6449643358428 507.35056650783224,185.6449643358428 513.7465931683504,184.35623184770353 C520.1426198288685,183.06749935956427 520.1426198288685,183.06749935956427 538.8816186006842,155.9253096735306 C557.6206173724999,128.78311998749692 557.6206173724999,128.78311998749692 529.1218234571154,97.34684611735372 C500.623029541731,65.91057224721051 500.623029541731,65.91057224721051 465.19871789355943,114.22333563257484 C429.77440624538787,162.53609901793916 429.77440624538787,162.53609901793916 468.5624863766101,174.09053167689098 Z" fill="#70D6FF" />
        <path d="M96.37980282440589,127.92666878489699 C99.24741503877902,151.69150646210383 99.24741503877902,151.69150646210383 133.48182143579206,184.54040051499237 C167.7162278328051,217.38929456788088 167.7162278328051,217.38929456788088 183.0003682862373,215.29507054001274 C198.28450873966952,213.2008465121446 198.28450873966952,213.2008465121446 216.4446457096057,192.29533080131176 C234.60478267954187,171.3898150904789 234.60478267954187,171.3898150904789 228.4909916260301,143.05111426523416 C222.37720057251838,114.71241343998946 222.37720057251838,114.71241343998946 174.69465790127663,102.72896012311739 C127.0121152300349,90.74550680624532 127.0121152300349,90.74550680624532 111.47594001862963,95.9402659636079 C93.51219061003275,104.16183110769015 93.51219061003275,104.16183110769015 96.37980282440589,127.92666878489699 Z" fill="#FF9770" />
        <path d="M21.256967757655065,237.4423468466391 C42.51393551531013,234.97866632278087 42.51393551531013,234.97866632278087 70.88067527704456,193.3350863924423 C99.247415038779,151.69150646210372 99.247415038779,151.69150646210372 96.37980282440589,127.926668784897 C93.51219061003276,104.16183110769029 93.51219061003276,104.16183110769029 46.75609530501638,104.65689716374345 C0,105.15196321979663 0,105.15196321979663 0,172.52899529514698 C0,239.90602737049736 0,239.90602737049736 21.256967757655065,237.4423468466391 Z" fill="#FF9770" />
        <path d="M541.5019045977112,214.0201176095233 C562.8611893665552,244.9727358594808 562.8611893665552,244.9727358594808 581.4305946832776,240.73748571889524 C599.9999999999999,236.5022355783097 599.9999999999999,236.5022355783097 599.9999999999999,180.95279293497433 C599.9999999999999,125.40335029163896 599.9999999999999,125.40335029163896 578.8103086862499,127.09323513956798 C557.6206173724999,128.783119987497 557.6206173724999,128.783119987497 538.8816186006836,155.92530967353144 C520.1426198288674,183.06749935956586 520.1426198288674,183.06749935956586 541.5019045977112,214.0201176095233 Z" fill="#FF70A6" />
        <path d="M428.7379573340012,231.12499650592812 C450.6909583414024,279.8687778646763 450.6909583414024,279.8687778646763 456.96513170307696,280.2891313442276 C463.2393050647515,280.7094848237789 463.2393050647515,280.7094848237789 485.2949357862931,233.17722457981128 C507.35056650783474,185.64496433584367 507.35056650783474,185.64496433584367 468.56248637661713,174.0905316768932 C428.75450287659083,162.7148809782149 428.75450287659083,162.7148809782149 417.76972960159543,172.54804806269743 C406.7849563266,182.38121514717994 406.7849563266,182.38121514717994 428.7379573340012,231.12499650592812 Z" fill="#FFD670" />
        <path d="M66.14178313953188,255.5231678738515 C89.7696307637536,276.0676694249221 89.7696307637536,276.0676694249221 113.11079288086563,273.25612461309004 C136.45195499797768,270.44457980125793 136.45195499797768,270.44457980125793 152.08409141539147,243.91693718456952 C167.71622783280523,217.3892945678811 167.71622783280523,217.3892945678811 133.48182143579209,184.54040051499246 C99.24741503877897,151.6915064621038 99.24741503877897,151.6915064621038 70.88067527704456,193.33508639244235 C42.513935515310166,234.97866632278087 42.513935515310166,234.97866632278087 66.14178313953188,255.5231678738515 Z" fill="#70D6FF" />
        <path d="M227.64070175540826,256.9323348188481 C256.9968947711471,300.6638231255514 256.9968947711471,300.6638231255514 260.1914126819259,299.4922758191789 C263.3859305927047,298.3207285128063 263.3859305927047,298.3207285128063 290.50827224611805,245.12113745525653 C317.63061389953134,191.92154639770678 317.63061389953134,191.92154639770678 276.1176982895367,181.65568074409282 C234.60478267954204,171.38981509047886 234.60478267954204,171.38981509047886 216.4446457096057,192.29533080131188 C198.2845087396694,213.20084651214486 198.2845087396694,213.20084651214486 227.64070175540826,256.9323348188481 Z" fill="#E9FF70" />
        <path d="M472.79690465150713,286.1431698405272 C482.3545042382622,291.57685485727666 482.3545042382622,291.57685485727666 513.962435873993,286.8886011792665 C545.5703675097237,282.2003475012564 545.5703675097237,282.2003475012564 554.2157784381394,263.5865416803686 C562.8611893665551,244.97273585948088 562.8611893665551,244.97273585948088 541.5019045977112,214.02011760952337 C520.1426198288673,183.06749935956586 520.1426198288673,183.06749935956586 513.7465931683512,184.35623184770472 C507.3505665078351,185.64496433584358 507.3505665078351,185.64496433584358 485.29493578629354,233.17722457981068 C463.239305064752,280.7094848237778 463.239305064752,280.7094848237778 472.79690465150713,286.1431698405272 Z" fill="#FF70A6" />
        <path d="M358.2846762201383,245.70673853998164 C367.0125858348724,298.9023066111189 367.0125858348724,298.9023066111189 388.31670633472163,301.8871998694184 C409.6208268345709,304.8720931277179 409.6208268345709,304.8720931277179 430.1558925879867,292.37043549619705 C450.6909583414025,279.86877786467613 450.6909583414025,279.86877786467613 428.73795733400124,231.12499650592784 C406.78495632659997,182.38121514717955 406.78495632659997,182.38121514717955 378.17086146600207,187.44619280801197 C349.5567666054042,192.51117046884443 349.5567666054042,192.51117046884443 358.2846762201383,245.70673853998164 Z" fill="#FFD670" />
        <path d="M304.17197231097236,305.7808057137217 C344.95801402923877,313.2408829146398 344.95801402923877,313.2408829146398 355.9852999320555,306.07159476287893 C367.01258583487225,298.902306611118 367.01258583487225,298.902306611118 358.2846762201383,245.7067385399813 C349.5567666054043,192.51117046884463 349.5567666054043,192.51117046884463 342.2759491520933,189.65818953848026 C334.9951316987823,186.8052086081159 334.9951316987823,186.8052086081159 326.3128727991567,189.36337750291148 C317.63061389953117,191.9215463977071 317.63061389953117,191.9215463977071 290.50827224611857,245.12113745525534 C263.38593059270596,298.32072851280356 263.38593059270596,298.32072851280356 304.17197231097236,305.7808057137217 Z" fill="#FF9770" />
        <path d="M155.98177436077788,301.9502214826486 C175.5115937235781,333.4558631640393 175.5115937235781,333.4558631640393 209.43966299672545,327.0755151880728 C243.3677322698728,320.69516721210636 243.3677322698728,320.69516721210636 250.18231352050913,310.67949516882777 C256.9968947711455,300.6638231255492 256.9968947711455,300.6638231255492 227.6407017554074,256.932334818847 C198.28450873966932,213.20084651214475 198.28450873966932,213.20084651214475 183.00036828623726,215.2950705400129 C167.7162278328052,217.38929456788105 167.7162278328052,217.38929456788105 152.0840914153914,243.9169371845695 C136.45195499797765,270.44457980125793 136.45195499797765,270.44457980125793 155.98177436077788,301.9502214826486 Z" fill="#70D6FF" />
        <path d="M572.7851837548619,325.28373477485314 C600.0000000000001,368.36712204844923 600.0000000000001,368.36712204844923 600.0000000000001,302.4346788133796 C600.0000000000001,236.50223557831004 600.0000000000001,236.50223557831004 581.4305946832776,240.7374857188957 C562.8611893665551,244.97273585948136 562.8611893665551,244.97273585948136 554.2157784381393,263.58654168036924 C545.5703675097236,282.20034750125706 545.5703675097236,282.20034750125706 572.7851837548619,325.28373477485314 Z" fill="#E9FF70" />
        <path d="M32.57256227998517,353.28433611139326 C65.14512455997034,359.71213816706654 65.14512455997034,359.71213816706654 77.45737766186195,317.8899037959943 C89.76963076375357,276.06766942492214 89.76963076375357,276.06766942492214 66.14178313953187,255.5231678738515 C42.513935515310166,234.9786663227808 42.513935515310166,234.9786663227808 21.256967757655083,237.44234684663908 C0,239.90602737049736 0,239.90602737049736 0,293.38128071310865 C0,346.8565340557199 0,346.8565340557199 32.57256227998517,353.28433611139326 Z" fill="#FF70A6" />
        <path d="M80.0999083640778,376.38229544262833 C95.05469216818527,393.05245271819007 95.05469216818527,393.05245271819007 120.39792235755775,385.94917997766424 C145.74115254693024,378.8459072371384 145.74115254693024,378.8459072371384 160.6263731352542,356.15088520058896 C175.5115937235782,333.45586316403944 175.5115937235782,333.45586316403944 155.9817743607779,301.95022148264866 C136.45195499797762,270.4445798012579 136.45195499797762,270.4445798012579 113.1107928808656,273.2561246130899 C89.76963076375357,276.067669424922 89.76963076375357,276.067669424922 77.45737766186195,317.88990379599426 C65.14512455997036,359.71213816706654 65.14512455997036,359.71213816706654 80.0999083640778,376.38229544262833 Z" fill="#FFD670" />
        <path d="M488.6981034750373,334.7891131734452 C495.0417027118135,378.001371489613 495.0417027118135,378.001371489613 547.5208513559064,376.66817650911844 C599.9999999999992,375.3349815286238 599.9999999999992,375.3349815286238 599.9999999999993,371.85105178853587 C599.9999999999993,368.3671220484479 599.9999999999993,368.3671220484479 572.7851837548614,325.2837347748524 C545.5703675097234,282.2003475012569 545.5703675097234,282.2003475012569 513.9624358739923,286.8886011792671 C482.3545042382611,291.57685485727734 482.3545042382611,291.57685485727734 488.6981034750373,334.7891131734452 Z" fill="#FF9770" />
        <path d="M417.8579034711496,344.7948715568249 C426.0949801077284,384.717649985932 426.0949801077284,384.717649985932 449.01029651886483,391.38623286530174 C471.9256129300013,398.05481574467143 471.9256129300013,398.05481574467143 483.4836578209074,388.02809361714253 C495.04170271181346,378.0013714896137 495.04170271181346,378.0013714896137 488.6981034750371,334.78911317344523 C482.35450423826074,291.57685485727677 482.35450423826074,291.57685485727677 472.79690465150617,286.14316984052766 C463.2393050647516,280.70948482377855 463.2393050647516,280.70948482377855 456.9651317030769,280.28913134422726 C450.6909583414022,279.86877786467596 450.6909583414022,279.86877786467596 430.1558925879865,292.3704354961968 C409.6208268345707,304.87209312771773 409.6208268345707,304.87209312771773 417.8579034711496,344.7948715568249 Z" fill="#FF70A6" />
        <path d="M256.3985597905579,364.20243353500837 C269.4293873112424,407.70969985791015 269.4293873112424,407.70969985791015 306.166613194068,399.46578186649526 C342.90383907689363,391.22186387508043 342.90383907689363,391.22186387508043 343.9309265530668,352.23137339486016 C344.95801402923996,313.24088291463994 344.95801402923996,313.24088291463994 304.1719723109751,305.7808057137221 C263.3859305927103,298.3207285128042 263.3859305927103,298.3207285128042 260.1914126819271,299.4922758191785 C256.99689477114384,300.66382312555277 256.99689477114384,300.66382312555277 250.18231352050861,310.6794951688297 C243.36773226987341,320.69516721210664 243.36773226987341,320.69516721210664 256.3985597905579,364.20243353500837 Z" fill="#70D6FF" />
        <path d="M358.51165387983156,401.8630630367096 C374.11946868276925,412.50426219833923 374.11946868276925,412.50426219833923 400.10722439524886,398.610956092136 C426.0949801077284,384.7176499859328 426.0949801077284,384.7176499859328 417.8579034711496,344.79487155682546 C409.62082683457083,304.8720931277181 409.62082683457083,304.8720931277181 388.31670633472135,301.8871998694185 C367.01258583487186,298.902306611119 367.01258583487186,298.902306611119 355.985299932056,306.07159476287944 C344.95801402924013,313.2408829146399 344.95801402924013,313.2408829146399 343.930926553067,352.23137339485993 C342.9038390768939,391.2218638750799 342.9038390768939,391.2218638750799 358.51165387983156,401.8630630367096 Z" fill="#E9FF70" />
        <path d="M183.25247398342282,414.83211116114614 C220.76379541991528,450.81831508515387 220.76379541991528,450.81831508515387 238.29786168979308,442.2923949599383 C255.83192795967085,433.76647483472277 255.83192795967085,433.76647483472277 262.6306576354566,420.73808734631626 C269.4293873112424,407.70969985790975 269.4293873112424,407.70969985790975 256.39855979055795,364.202433535008 C243.36773226987347,320.6951672121063 243.36773226987347,320.6951672121063 209.43966299672593,327.0755151880728 C175.51159372357836,333.4558631640393 175.51159372357836,333.4558631640393 160.62637313525437,356.15088520058885 C145.74115254693038,378.8459072371384 145.74115254693038,378.8459072371384 183.25247398342282,414.83211116114614 Z" fill="#FF9770" />
        <path d="M23.140192702342908,455.26627832063286 C46.280385404685816,455.71836852894404 46.280385404685816,455.71836852894404 67.80578187686743,434.81376635602726 C89.33117834904905,413.9091641831104 89.33117834904905,413.9091641831104 92.19293525861713,403.4808084506502 C95.0546921681852,393.05245271819007 95.0546921681852,393.05245271819007 80.0999083640778,376.38229544262833 C65.14512455997043,359.71213816706654 65.14512455997043,359.71213816706654 32.57256227998521,353.28433611139326 C0,346.8565340557199 0,346.8565340557199 0,400.8353610840208 C0,454.8141881123217 0,454.8141881123217 23.140192702342908,455.26627832063286 Z" fill="#FFD670" />
        <path d="M477.2098047264823,438.5732876127635 C482.4939965229639,479.0917594808553 482.4939965229639,479.0917594808553 494.8047346560199,488.3053433140012 C507.11547278907585,497.5189271471472 507.11547278907585,497.5189271471472 553.557736394538,464.5675534781524 C600.0000000000001,431.6161798091575 600.0000000000001,431.6161798091575 600.0000000000001,403.47558066889053 C600.0000000000001,375.33498152862364 600.0000000000001,375.33498152862364 547.5208513559071,376.6681765091182 C495.041702711814,378.00137148961284 495.041702711814,378.00137148961284 483.4836578209073,388.0280936171423 C471.92561293000057,398.05481574467177 471.92561293000057,398.05481574467177 477.2098047264823,438.5732876127635 Z" fill="#FF70A6" />
        <path d="M376.0897922503061,453.79492694295925 C378.06011581784384,495.0855916875791 378.06011581784384,495.0855916875791 430.27705617040397,487.0886755842174 C482.4939965229641,479.09175948085567 482.4939965229641,479.09175948085567 477.2098047264825,438.57328761276364 C471.92561293000085,398.0548157446716 471.92561293000085,398.0548157446716 449.01029651886466,391.38623286530196 C426.0949801077285,384.71764998593227 426.0949801077285,384.71764998593227 400.10722439524847,398.6109560921358 C374.11946868276846,412.50426219833935 374.11946868276846,412.50426219833935 376.0897922503061,453.79492694295925 Z" fill="#70D6FF" />
        <path d="M297.08439474968657,472.202365944844 C338.33686153970194,510.6382570549658 338.33686153970194,510.6382570549658 354.8590886897532,506.98653275353865 C371.3813158398044,503.3348084521115 371.3813158398044,503.3348084521115 374.72071582882427,499.2102000698471 C378.06011581784406,495.0855916875827 378.06011581784406,495.0855916875827 376.08979225030623,453.7949269429603 C374.11946868276846,412.50426219833787 374.11946868276846,412.50426219833787 358.5116538798318,401.8630630367089 C342.90383907689517,391.22186387508003 342.90383907689517,391.22186387508003 306.16661319406876,399.46578186649504 C269.4293873112423,407.7096998579101 269.4293873112423,407.7096998579101 262.6306576354567,420.73808734631615 C255.8319279596712,433.7664748347222 255.8319279596712,433.7664748347222 297.08439474968657,472.202365944844 Z" fill="#FF9770" />
        <path d="M126.23855517284376,467.94943675811305 C163.1459319966383,521.9897093331158 163.1459319966383,521.9897093331158 175.82729174103315,518.6172966076431 C188.508651485428,515.2448838821703 188.508651485428,515.2448838821703 204.63622345267174,483.03159948366203 C220.7637954199155,450.81831508515376 220.7637954199155,450.81831508515376 183.25247398342302,414.83211116114603 C145.74115254693052,378.84590723713825 145.74115254693052,378.84590723713825 120.39792235755795,385.94917997766424 C95.05469216818538,393.0524527181902 95.05469216818538,393.0524527181902 92.1929352586173,403.4808084506503 C89.33117834904922,413.90916418311036 89.33117834904922,413.90916418311036 126.23855517284376,467.94943675811305 Z" fill="#70D6FF" />
        <path d="M55.08330044490647,487.5860509816578 C63.886215485127174,519.4537334343717 63.886215485127174,519.4537334343717 94.47515606605661,537.1648744385689 C125.06409664698604,554.8760154427661 125.06409664698604,554.8760154427661 144.10501432181212,538.4328623879408 C163.1459319966382,521.9897093331156 163.1459319966382,521.9897093331156 126.23855517284372,467.94943675811294 C89.33117834904921,413.90916418311036 89.33117834904921,413.90916418311036 67.80578187686748,434.81376635602714 C46.28038540468577,455.718368528944 46.28038540468577,455.718368528944 55.08330044490647,487.5860509816578 Z" fill="#E9FF70" />
        <path d="M210.3150252469609,532.8257844299442 C232.12139900849385,550.4066849777182 232.12139900849385,550.4066849777182 275.77922068274665,541.0662893361169 C319.4370423569994,531.7258936945157 319.4370423569994,531.7258936945157 328.88695194835066,521.1820753747407 C338.33686153970194,510.6382570549658 338.33686153970194,510.6382570549658 297.0843947496867,472.20236594484413 C255.83192795967136,433.7664748347225 255.83192795967136,433.7664748347225 238.29786168979348,442.29239495993806 C220.76379541991557,450.8183150851537 220.76379541991557,450.8183150851537 204.63622345267174,483.03159948366186 C188.50865148542792,515.24488388217 188.50865148542792,515.24488388217 210.3150252469609,532.8257844299442 Z" fill="#FF70A6" />
        <path d="M31.943107742563594,533.9640614683542 C63.88621548512719,519.4537334343717 63.88621548512719,519.4537334343717 55.083300444906456,487.5860509816579 C46.28038540468573,455.71836852894404 46.28038540468573,455.71836852894404 23.140192702342866,455.2662783206329 C0,454.8141881123218 0,454.8141881123218 0,501.6442888073292 C0,548.4743895023366 0,548.4743895023366 31.943107742563594,533.9640614683542 Z" fill="#FF9770" />
        <path d="M509.8609754150729,509.57365713193514 C512.6064780410727,521.6283871167213 512.6064780410727,521.6283871167213 556.3032390205365,545.9712358477339 C600.0000000000001,570.3140845787462 600.0000000000001,570.3140845787462 600.0000000000001,500.9651321939517 C600.0000000000001,431.6161798091572 600.0000000000001,431.6161798091572 553.5577363945366,464.56755347815306 C507.1154727890731,497.51892714714893 507.1154727890731,497.51892714714893 509.8609754150729,509.57365713193514 Z" fill="#70D6FF" />
        <path d="M395.22455845584466,551.6674042260572 C419.0678010718875,600.0000000000003 419.0678010718875,600.0000000000003 443.00670058709784,600.0000000000003 C466.9456001023081,600.0000000000003 466.9456001023081,600.0000000000003 489.776039071692,560.8141935583617 C512.6064780410759,521.6283871167232 512.6064780410759,521.6283871167232 509.86097541507564,509.57365713193497 C507.1154727890754,497.5189271471468 507.1154727890754,497.5189271471468 494.80473465602,488.3053433140013 C482.4939965229646,479.0917594808557 482.4939965229646,479.0917594808557 430.2770561704057,487.0886755842172 C378.0601158178468,495.08559168757864 378.0601158178468,495.08559168757864 374.72071582882427,499.21020006984634 C371.38131583980174,503.334808452114 371.38131583980174,503.334808452114 395.22455845584466,551.6674042260572 Z" fill="#FF70A6" />
        <path d="M120.05584314968874,577.4380077213832 C125.06409664698614,554.8760154427662 125.06409664698614,554.8760154427662 94.47515606605666,537.1648744385689 C63.88621548512717,519.4537334343715 63.88621548512717,519.4537334343715 31.943107742563583,533.964061468354 C0,548.4743895023365 0,548.4743895023365 0,574.2371947511683 C0,600 0,600 57.52379482619567,600 C115.04758965239134,600.0000000000001 115.04758965239134,600.0000000000001 120.05584314968874,577.4380077213832 Z" fill="#FFD670" />
        <path d="M319.86277847661444,565.8629468472581 C320.28851459623047,599.9999999999999 320.28851459623047,599.9999999999999 369.6781578340588,599.9999999999999 C419.0678010718872,599.9999999999999 419.0678010718872,599.9999999999999 395.224558455844,551.6674042260561 C371.3813158398008,503.3348084521122 371.3813158398008,503.3348084521122 354.85908868975105,506.986532753539 C338.3368615397013,510.6382570549658 338.3368615397013,510.6382570549658 328.88695194834986,521.182075374741 C319.4370423569984,531.7258936945162 319.4370423569984,531.7258936945162 319.86277847661444,565.8629468472581 Z" fill="#FF9770" />
        <path d="M236.44499792442707,575.2033424888591 C240.76859684035986,600 240.76859684035986,600 280.5285557182953,600 C320.28851459623075,600.0000000000001 320.28851459623075,600.0000000000001 319.8627784766147,565.8629468472578 C319.43704235699863,531.7258936945155 319.43704235699863,531.7258936945155 275.7792206827464,541.0662893361168 C232.12139900849428,550.4066849777182 232.12139900849428,550.4066849777182 236.44499792442707,575.2033424888591 Z" fill="#70D6FF" />
        <path d="M556.303239020537,545.9712358477345 C512.6064780410757,521.6283871167233 512.6064780410757,521.6283871167233 489.7760390716919,560.8141935583615 C466.94560010230816,599.9999999999998 466.94560010230816,599.9999999999998 533.4728000511533,599.9999999999998 C599.9999999999984,599.9999999999999 599.9999999999984,599.9999999999999 599.9999999999984,585.1570422893728 C599.9999999999984,570.3140845787458 599.9999999999984,570.3140845787458 556.303239020537,545.9712358477345 Z" fill="#FF70A6" />
        <path d="M236.44499792442727,575.2033424888593 C232.1213990084945,550.4066849777186 232.1213990084945,550.4066849777186 210.31502524696117,532.8257844299442 C188.50865148542786,515.2448838821699 188.50865148542786,515.2448838821699 175.82729174103315,518.6172966076426 C163.14593199663847,521.9897093331155 163.14593199663847,521.9897093331155 144.1050143218123,538.4328623879408 C125.0640966469861,554.8760154427662 125.0640966469861,554.8760154427662 120.05584314968868,577.4380077213831 C115.04758965239127,600 115.04758965239127,600 177.90809324637564,600 C240.76859684036003,600 240.76859684036003,600 236.44499792442727,575.2033424888593 Z" fill="#FF9770" />
    </g>
</svg>