<?xml version="1.0" encoding="UTF-8" standalone="no"?>
<!DOCTYPE svg PUBLIC "-//W3C//DTD SVG 1.1//EN"
 "http://www.w3.org/Graphics/SVG/1.1/DTD/svg11.dtd">
<!-- Generated by graphviz version 2.43.0 (0)
 -->
<!-- Title: %3 Pages: 1 -->
<svg width="404pt" height="54pt"
 viewBox="0.00 0.00 404.00 54.00" xmlns="http://www.w3.org/2000/svg" xmlns:xlink="http://www.w3.org/1999/xlink">
<g id="graph0" class="graph" transform="scale(1 1) rotate(0) translate(4 50)">
<title>%3</title>
<polygon fill="white" stroke="transparent" points="-4,4 -4,-50 400,-50 400,4 -4,4"/>
<!-- S -->
<g id="node1" class="node">
<title>S</title>
<ellipse fill="none" stroke="black" cx="27" cy="-23" rx="27" ry="18"/>
<text text-anchor="middle" x="27" y="-19.3" font-family="Times,serif" font-size="14.00">S</text>
</g>
<!-- S&#45;&gt;S -->
<g id="edge1" class="edge">
<title>S&#45;&gt;S</title>
<path fill="none" stroke="black" d="M54.17,-24.3C100.86,-25.91 162,-25.47 162,-23 162,-20.7 109.16,-20.16 64.21,-21.39"/>
<polygon fill="black" stroke="black" points="64.06,-17.89 54.17,-21.7 64.27,-24.89 64.06,-17.89"/>
<text text-anchor="middle" x="171.5" y="-34.8" font-family="Times,serif" font-size="14.00">0.2</text>
<text text-anchor="middle" x="171.5" y="-3.8" font-family="Times,serif" font-size="14.00"> &#39;A&#39;</text>
</g>
<!-- S&#45;&gt;S -->
<g id="edge2" class="edge">
<title>S&#45;&gt;S</title>
<path fill="none" stroke="black" d="M53.93,-24.64C139.24,-28.94 270,-28.39 270,-23 270,-17.82 149.25,-17.11 64.13,-20.88"/>
<polygon fill="black" stroke="black" points="63.76,-17.39 53.93,-21.36 64.09,-24.38 63.76,-17.39"/>
<text text-anchor="middle" x="279" y="-34.3" font-family="Times,serif" font-size="14.00">0.2</text>
<text text-anchor="middle" x="279" y="-19.3" font-family="Times,serif" font-size="14.00"> </text>
<text text-anchor="middle" x="279" y="-4.3" font-family="Times,serif" font-size="14.00">&#39;B&#39;</text>
</g>
<!-- S&#45;&gt;S -->
<g id="edge3" class="edge">
<title>S&#45;&gt;S</title>
<path fill="none" stroke="black" d="M54.07,-24.81C176.6,-31.95 378,-31.35 378,-23 378,-14.88 187.46,-14.09 64.29,-20.62"/>
<polygon fill="black" stroke="black" points="63.86,-17.14 54.07,-21.19 64.24,-24.13 63.86,-17.14"/>
<text text-anchor="middle" x="387" y="-34.3" font-family="Times,serif" font-size="14.00">0.6</text>
<text text-anchor="middle" x="387" y="-19.3" font-family="Times,serif" font-size="14.00"> </text>
<text text-anchor="middle" x="387" y="-4.3" font-family="Times,serif" font-size="14.00">&#39;C&#39;</text>
</g>
</g>
</svg>
