<?xml version="1.0" encoding="UTF-8" standalone="no"?>
<!DOCTYPE svg PUBLIC "-//W3C//DTD SVG 1.1//EN"
 "http://www.w3.org/Graphics/SVG/1.1/DTD/svg11.dtd">
<!-- Generated by graphviz version 2.43.0 (0)
 -->
<!-- Title: %3 Pages: 1 -->
<svg width="533pt" height="44pt"
 viewBox="0.00 0.00 533.00 44.00" xmlns="http://www.w3.org/2000/svg" xmlns:xlink="http://www.w3.org/1999/xlink">
<g id="graph0" class="graph" transform="scale(1 1) rotate(0) translate(4 40)">
<title>%3</title>
<polygon fill="white" stroke="transparent" points="-4,4 -4,-40 529,-40 529,4 -4,4"/>
<!-- S -->
<g id="node1" class="node">
<title>S</title>
<ellipse fill="none" stroke="black" cx="27" cy="-18" rx="27" ry="18"/>
<text text-anchor="middle" x="27" y="-14.3" font-family="Times,serif" font-size="14.00">S</text>
</g>
<!-- S&#45;&gt;S -->
<g id="edge1" class="edge">
<title>S&#45;&gt;S</title>
<path fill="none" stroke="black" d="M53.95,-19.09C113.81,-20.94 198,-20.58 198,-18 198,-15.56 122.76,-15.11 63.97,-16.63"/>
<polygon fill="black" stroke="black" points="63.85,-13.13 53.95,-16.91 64.05,-20.13 63.85,-13.13"/>
<text text-anchor="middle" x="218" y="-14.3" font-family="Times,serif" font-size="14.00">0.2, &#39;A&#39;</text>
</g>
<!-- S&#45;&gt;S -->
<g id="edge2" class="edge">
<title>S&#45;&gt;S</title>
<path fill="none" stroke="black" d="M54.08,-19.33C164.29,-23.96 342,-23.52 342,-18 342,-12.65 174.88,-12.07 64.27,-16.27"/>
<polygon fill="black" stroke="black" points="63.94,-12.78 54.08,-16.67 64.21,-19.77 63.94,-12.78"/>
<text text-anchor="middle" x="361.5" y="-14.3" font-family="Times,serif" font-size="14.00">0.2, &#39;B&#39;</text>
</g>
<!-- S&#45;&gt;S -->
<g id="edge3" class="edge">
<title>S&#45;&gt;S</title>
<path fill="none" stroke="black" d="M54.39,-19.44C213.68,-26.97 486,-26.49 486,-18 486,-9.69 225.26,-9.05 64.81,-16.08"/>
<polygon fill="black" stroke="black" points="64.22,-12.61 54.39,-16.56 64.54,-19.6 64.22,-12.61"/>
<text text-anchor="middle" x="505.5" y="-14.3" font-family="Times,serif" font-size="14.00">0.6, &#39;C&#39;</text>
</g>
</g>
</svg>
