<?xml version="1.0" encoding="UTF-8" standalone="no"?>
<!DOCTYPE svg PUBLIC "-//W3C//DTD SVG 1.1//EN"
 "http://www.w3.org/Graphics/SVG/1.1/DTD/svg11.dtd">
<!-- Generated by graphviz version 2.43.0 (0)
 -->
<!-- Title: %3 Pages: 1 -->
<svg width="189pt" height="104pt"
 viewBox="0.00 0.00 189.34 103.81" xmlns="http://www.w3.org/2000/svg" xmlns:xlink="http://www.w3.org/1999/xlink">
<g id="graph0" class="graph" transform="scale(1 1) rotate(0) translate(5.25 99.81)">
<title>%3</title>
<polygon fill="white" stroke="transparent" points="-5.25,4 -5.25,-99.81 184.1,-99.81 184.1,4 -5.25,4"/>
<!-- A -->
<g id="node1" class="node">
<title>A</title>
<ellipse fill="none" stroke="black" cx="27.44" cy="-74.51" rx="27" ry="18"/>
<text text-anchor="middle" x="27.44" y="-70.81" font-family="Times,serif" font-size="14.00">A</text>
</g>
<!-- A&#45;&gt;A -->
<g id="edge1" class="edge">
<title>A&#45;&gt;A</title>
<path fill="none" stroke="black" d="M52.88,-81.2C63.47,-81.67 72.44,-79.44 72.44,-74.51 72.44,-71.28 68.57,-69.21 62.93,-68.3"/>
<polygon fill="black" stroke="black" points="63.04,-64.8 52.88,-67.82 62.7,-71.79 63.04,-64.8"/>
<text text-anchor="middle" x="92.94" y="-70.81" font-family="Times,serif" font-size="14.00">0.33, A</text>
</g>
<!-- B -->
<g id="node2" class="node">
<title>B</title>
<ellipse fill="none" stroke="black" cx="94.1" cy="-73.65" rx="27" ry="18"/>
<text text-anchor="middle" x="94.1" y="-69.95" font-family="Times,serif" font-size="14.00">B</text>
</g>
<!-- A&#45;&gt;B -->
<g id="edge2" class="edge">
<title>A&#45;&gt;B</title>
<path fill="none" stroke="black" d="M53.11,-80.77C54.87,-80.82 56.67,-80.85 58.48,-80.84"/>
<polygon fill="black" stroke="black" points="58.88,-84.33 68.78,-80.55 58.69,-77.34 58.88,-84.33"/>
<text text-anchor="middle" x="76.29" y="-84.61" font-family="Times,serif" font-size="14.00">0.33, B</text>
</g>
<!-- C -->
<g id="node3" class="node">
<title>C</title>
<ellipse fill="none" stroke="black" cx="60.04" cy="-17.78" rx="27" ry="18"/>
<text text-anchor="middle" x="60.04" y="-14.08" font-family="Times,serif" font-size="14.00">C</text>
</g>
<!-- A&#45;&gt;C -->
<g id="edge3" class="edge">
<title>A&#45;&gt;C</title>
<path fill="none" stroke="black" d="M43.24,-59.71C46.34,-55.13 49.46,-49.94 52.2,-44.8"/>
<polygon fill="black" stroke="black" points="55.37,-46.28 56.66,-35.76 49.1,-43.18 55.37,-46.28"/>
<text text-anchor="middle" x="27.22" y="-41.06" font-family="Times,serif" font-size="14.00">0.33, C</text>
</g>
<!-- B&#45;&gt;A -->
<g id="edge4" class="edge">
<title>B&#45;&gt;A</title>
<path fill="none" stroke="black" d="M68.43,-67.39C66.66,-67.34 64.86,-67.31 63.06,-67.31"/>
<polygon fill="black" stroke="black" points="62.65,-63.82 52.76,-67.61 62.85,-70.82 62.65,-63.82"/>
<text text-anchor="middle" x="45.24" y="-56.15" font-family="Times,serif" font-size="14.00">0.33, A</text>
</g>
<!-- B&#45;&gt;B -->
<g id="edge5" class="edge">
<title>B&#45;&gt;B</title>
<path fill="none" stroke="black" d="M119.54,-80.34C130.13,-80.8 139.1,-78.57 139.1,-73.65 139.1,-70.42 135.23,-68.35 129.59,-67.43"/>
<polygon fill="black" stroke="black" points="129.7,-63.94 119.54,-66.96 129.36,-70.93 129.7,-63.94"/>
<text text-anchor="middle" x="159.6" y="-69.95" font-family="Times,serif" font-size="14.00">0.33, B</text>
</g>
<!-- B&#45;&gt;C -->
<g id="edge6" class="edge">
<title>B&#45;&gt;C</title>
<path fill="none" stroke="black" d="M90.14,-55.52C87.87,-50.81 85.01,-45.68 81.95,-40.77"/>
<polygon fill="black" stroke="black" points="84.75,-38.66 76.3,-32.27 78.92,-42.54 84.75,-38.66"/>
<text text-anchor="middle" x="106.55" y="-36.94" font-family="Times,serif" font-size="14.00">0.33, C</text>
</g>
<!-- C&#45;&gt;A -->
<g id="edge7" class="edge">
<title>C&#45;&gt;A</title>
<path fill="none" stroke="black" d="M44.23,-32.58C41.13,-37.16 38.02,-42.35 35.27,-47.49"/>
<polygon fill="black" stroke="black" points="32.1,-46.01 30.82,-56.53 38.38,-49.11 32.1,-46.01"/>
<text text-anchor="middle" x="19.25" y="-28.83" font-family="Times,serif" font-size="14.00">0.33, A</text>
</g>
<!-- C&#45;&gt;B -->
<g id="edge8" class="edge">
<title>C&#45;&gt;B</title>
<path fill="none" stroke="black" d="M63.99,-35.9C66.27,-40.61 69.12,-45.74 72.19,-50.66"/>
<polygon fill="black" stroke="black" points="69.38,-52.76 77.84,-59.15 75.21,-48.89 69.38,-52.76"/>
<text text-anchor="middle" x="88.59" y="-47.08" font-family="Times,serif" font-size="14.00">0.33, B</text>
</g>
<!-- C&#45;&gt;C -->
<g id="edge9" class="edge">
<title>C&#45;&gt;C</title>
<path fill="none" stroke="black" d="M85.48,-24.47C96.06,-24.93 105.04,-22.7 105.04,-17.78 105.04,-14.55 101.17,-12.48 95.52,-11.56"/>
<polygon fill="black" stroke="black" points="95.63,-8.07 85.48,-11.09 95.3,-15.06 95.63,-8.07"/>
<text text-anchor="middle" x="125.54" y="-14.08" font-family="Times,serif" font-size="14.00">0.33, C</text>
</g>
</g>
</svg>
