<?xml version="1.0" encoding="UTF-8" standalone="no"?>
<!DOCTYPE svg PUBLIC "-//W3C//DTD SVG 1.1//EN"
 "http://www.w3.org/Graphics/SVG/1.1/DTD/svg11.dtd">
<!-- Generated by graphviz version 2.43.0 (0)
 -->
<!-- Title: %3 Pages: 1 -->
<svg width="233pt" height="218pt"
 viewBox="0.00 0.00 233.00 218.00" xmlns="http://www.w3.org/2000/svg" xmlns:xlink="http://www.w3.org/1999/xlink">
<g id="graph0" class="graph" transform="scale(1 1) rotate(0) translate(4 214)">
<title>%3</title>
<polygon fill="white" stroke="transparent" points="-4,4 -4,-214 229,-214 229,4 -4,4"/>
<!-- A -->
<g id="node1" class="node">
<title>A</title>
<ellipse fill="none" stroke="black" cx="121" cy="-192" rx="27" ry="18"/>
<text text-anchor="middle" x="121" y="-188.3" font-family="Times,serif" font-size="14.00">A</text>
</g>
<!-- A&#45;&gt;A -->
<g id="edge1" class="edge">
<title>A&#45;&gt;A</title>
<path fill="none" stroke="black" d="M145.53,-199.75C156.51,-200.49 166,-197.91 166,-192 166,-188.03 161.72,-185.56 155.57,-184.59"/>
<polygon fill="black" stroke="black" points="155.65,-181.09 145.53,-184.25 155.41,-188.09 155.65,-181.09"/>
<text text-anchor="middle" x="186.5" y="-188.3" font-family="Times,serif" font-size="14.00">0.33, A</text>
</g>
<!-- B -->
<g id="node2" class="node">
<title>B</title>
<ellipse fill="none" stroke="black" cx="27" cy="-105" rx="27" ry="18"/>
<text text-anchor="middle" x="27" y="-101.3" font-family="Times,serif" font-size="14.00">B</text>
</g>
<!-- A&#45;&gt;B -->
<g id="edge2" class="edge">
<title>A&#45;&gt;B</title>
<path fill="none" stroke="black" d="M94.4,-188.43C73.28,-184.87 44.89,-176.35 30,-156 25.29,-149.56 23.57,-141.31 23.3,-133.38"/>
<polygon fill="black" stroke="black" points="26.8,-133.43 23.66,-123.31 19.81,-133.18 26.8,-133.43"/>
<text text-anchor="middle" x="50.5" y="-144.8" font-family="Times,serif" font-size="14.00">0.33, B</text>
</g>
<!-- C -->
<g id="node3" class="node">
<title>C</title>
<ellipse fill="none" stroke="black" cx="121" cy="-18" rx="27" ry="18"/>
<text text-anchor="middle" x="121" y="-14.3" font-family="Times,serif" font-size="14.00">C</text>
</g>
<!-- A&#45;&gt;C -->
<g id="edge3" class="edge">
<title>A&#45;&gt;C</title>
<path fill="none" stroke="black" d="M126.85,-174.11C128.54,-168.43 130.16,-162.01 131,-156 137.29,-111.1 137.29,-98.9 131,-54 130.62,-51.28 130.08,-48.47 129.44,-45.68"/>
<polygon fill="black" stroke="black" points="132.79,-44.66 126.85,-35.89 126.03,-46.45 132.79,-44.66"/>
<text text-anchor="middle" x="155.5" y="-101.3" font-family="Times,serif" font-size="14.00">0.33, C</text>
</g>
<!-- B&#45;&gt;A -->
<g id="edge4" class="edge">
<title>B&#45;&gt;A</title>
<path fill="none" stroke="black" d="M44.51,-119.19C52.73,-125.57 62.55,-133.46 71,-141 80.78,-149.73 91.09,-159.87 99.8,-168.73"/>
<polygon fill="black" stroke="black" points="97.5,-171.38 106.98,-176.11 102.52,-166.5 97.5,-171.38"/>
<text text-anchor="middle" x="106.5" y="-144.8" font-family="Times,serif" font-size="14.00">0.33, A</text>
</g>
<!-- B&#45;&gt;B -->
<g id="edge5" class="edge">
<title>B&#45;&gt;B</title>
<path fill="none" stroke="black" d="M51.53,-112.75C62.51,-113.49 72,-110.91 72,-105 72,-101.03 67.72,-98.56 61.57,-97.59"/>
<polygon fill="black" stroke="black" points="61.65,-94.09 51.53,-97.25 61.41,-101.09 61.65,-94.09"/>
<text text-anchor="middle" x="92.5" y="-101.3" font-family="Times,serif" font-size="14.00">0.33, B</text>
</g>
<!-- B&#45;&gt;C -->
<g id="edge6" class="edge">
<title>B&#45;&gt;C</title>
<path fill="none" stroke="black" d="M23.66,-86.69C22.64,-76.27 23.22,-63.26 30,-54 42.68,-36.67 65.15,-27.92 84.58,-23.5"/>
<polygon fill="black" stroke="black" points="85.27,-26.93 94.4,-21.57 83.91,-20.07 85.27,-26.93"/>
<text text-anchor="middle" x="50.5" y="-57.8" font-family="Times,serif" font-size="14.00">0.33, C</text>
</g>
<!-- C&#45;&gt;A -->
<g id="edge7" class="edge">
<title>C&#45;&gt;A</title>
<path fill="none" stroke="black" d="M137.91,-32.29C152.19,-44.68 171.64,-64.6 180,-87 185.6,-101.99 185.6,-108.01 180,-123 173.07,-141.55 158.55,-158.4 145.65,-170.68"/>
<polygon fill="black" stroke="black" points="142.95,-168.4 137.91,-177.71 147.66,-173.58 142.95,-168.4"/>
<text text-anchor="middle" x="204.5" y="-101.3" font-family="Times,serif" font-size="14.00">0.33, A</text>
</g>
<!-- C&#45;&gt;B -->
<g id="edge8" class="edge">
<title>C&#45;&gt;B</title>
<path fill="none" stroke="black" d="M106.98,-33.89C97.18,-44.07 83.64,-57.72 71,-69 65.19,-74.18 58.73,-79.53 52.59,-84.44"/>
<polygon fill="black" stroke="black" points="50.2,-81.87 44.51,-90.81 54.53,-87.37 50.2,-81.87"/>
<text text-anchor="middle" x="106.5" y="-57.8" font-family="Times,serif" font-size="14.00">0.33, B</text>
</g>
<!-- C&#45;&gt;C -->
<g id="edge9" class="edge">
<title>C&#45;&gt;C</title>
<path fill="none" stroke="black" d="M145.53,-25.75C156.51,-26.49 166,-23.91 166,-18 166,-14.03 161.72,-11.56 155.57,-10.59"/>
<polygon fill="black" stroke="black" points="155.65,-7.09 145.53,-10.25 155.41,-14.09 155.65,-7.09"/>
<text text-anchor="middle" x="186.5" y="-14.3" font-family="Times,serif" font-size="14.00">0.33, C</text>
</g>
</g>
</svg>
