<?xml version="1.0" encoding="UTF-8" standalone="no"?>
<!DOCTYPE svg PUBLIC "-//W3C//DTD SVG 1.1//EN"
 "http://www.w3.org/Graphics/SVG/1.1/DTD/svg11.dtd">
<!-- Generated by graphviz version 2.43.0 (0)
 -->
<!-- Title: %3 Pages: 1 -->
<svg width="234pt" height="44pt"
 viewBox="0.00 0.00 234.00 44.00" xmlns="http://www.w3.org/2000/svg" xmlns:xlink="http://www.w3.org/1999/xlink">
<g id="graph0" class="graph" transform="scale(1 1) rotate(0) translate(4 40)">
<title>%3</title>
<polygon fill="white" stroke="transparent" points="-4,4 -4,-40 230,-40 230,4 -4,4"/>
<!-- S -->
<g id="node1" class="node">
<title>S</title>
<ellipse fill="none" stroke="black" cx="27" cy="-18" rx="27" ry="18"/>
<text text-anchor="middle" x="27" y="-14.3" font-family="Times,serif" font-size="14.00">S</text>
</g>
<!-- S&#45;&gt;S -->
<g id="edge1" class="edge">
<title>S&#45;&gt;S</title>
<path fill="none" stroke="black" d="M53.94,-19.95C75.19,-20.7 97,-20.05 97,-18 97,-16.29 81.76,-15.55 64.35,-15.8"/>
<polygon fill="black" stroke="black" points="63.85,-12.31 53.94,-16.05 64.02,-19.3 63.85,-12.31"/>
<text text-anchor="middle" x="117" y="-14.3" font-family="Times,serif" font-size="14.00">0.2, &#39;A&#39;</text>
</g>
<!-- S&#45;&gt;S -->
<g id="edge2" class="edge">
<title>S&#45;&gt;S</title>
<path fill="none" stroke="black" d="M53.67,-20.91C92.16,-23.75 140,-22.78 140,-18 140,-13.63 100.03,-12.44 63.76,-14.44"/>
<polygon fill="black" stroke="black" points="63.42,-10.95 53.67,-15.09 63.87,-17.94 63.42,-10.95"/>
<text text-anchor="middle" x="159.5" y="-14.3" font-family="Times,serif" font-size="14.00">0.2, &#39;B&#39;</text>
</g>
<!-- S&#45;&gt;S -->
<g id="edge3" class="edge">
<title>S&#45;&gt;S</title>
<path fill="none" stroke="black" d="M53.83,-21.49C108.27,-26.79 183,-25.63 183,-18 183,-10.83 117.05,-9.37 63.92,-13.62"/>
<polygon fill="black" stroke="black" points="63.49,-10.15 53.83,-14.51 64.1,-17.12 63.49,-10.15"/>
<text text-anchor="middle" x="202.5" y="-14.3" font-family="Times,serif" font-size="14.00">0.6, &#39;C&#39;</text>
</g>
</g>
</svg>
