<?xml version="1.0" encoding="UTF-8" standalone="no"?>
<!DOCTYPE svg PUBLIC "-//W3C//DTD SVG 1.1//EN"
 "http://www.w3.org/Graphics/SVG/1.1/DTD/svg11.dtd">
<!-- Generated by graphviz version 2.43.0 (0)
 -->
<!-- Title: %3 Pages: 1 -->
<svg width="234pt" height="44pt"
 viewBox="0.00 0.00 234.00 44.00" xmlns="http://www.w3.org/2000/svg" xmlns:xlink="http://www.w3.org/1999/xlink">
<g id="graph0" class="graph" transform="scale(1 1) rotate(0) translate(4 40)">
<title>%3</title>
<polygon fill="white" stroke="transparent" points="-4,4 -4,-40 230,-40 230,4 -4,4"/>
<!-- S -->
<g id="node1" class="node">
<title>S</title>
<ellipse fill="none" stroke="black" cx="27" cy="-18" rx="27" ry="18"/>
<text text-anchor="middle" x="27" y="-14.3" font-family="Times,serif" font-size="14.00">S</text>
</g>
<!-- S&#45;&gt;S -->
<g id="edge1" class="edge">
<title>S&#45;&gt;S</title>
<path fill="none" stroke="black" d="M53.79,-20.25C63.78,-20.32 72,-19.57 72,-18 72,-17.02 68.79,-16.36 63.94,-16.02"/>
<polygon fill="black" stroke="black" points="63.88,-12.52 53.79,-15.75 63.7,-19.51 63.88,-12.52"/>
<text text-anchor="middle" x="92" y="-14.3" font-family="Times,serif" font-size="14.00">0.2, &#39;A&#39;</text>
</g>
<!-- S&#45;&gt;S -->
<g id="edge2" class="edge">
<title>S&#45;&gt;S</title>
<path fill="none" stroke="black" d="M53.84,-21.73C80.01,-23.49 112,-22.24 112,-18 112,-14.29 87.51,-12.87 63.85,-13.75"/>
<polygon fill="black" stroke="black" points="63.64,-10.26 53.84,-14.27 64.01,-17.25 63.64,-10.26"/>
<text text-anchor="middle" x="131.5" y="-14.3" font-family="Times,serif" font-size="14.00">0.2, &#39;B&#39;</text>
</g>
<!-- S&#45;&gt;S -->
<g id="edge3" class="edge">
<title>S&#45;&gt;S</title>
<path fill="none" stroke="black" d="M53.31,-22.64C92.09,-26.56 151,-25.01 151,-18 151,-11.59 101.78,-9.74 63.7,-12.47"/>
<polygon fill="black" stroke="black" points="62.98,-9.02 53.31,-13.36 63.57,-15.99 62.98,-9.02"/>
<text text-anchor="middle" x="170.5" y="-14.3" font-family="Times,serif" font-size="14.00">0.6, &#39;C&#39;</text>
</g>
</g>
</svg>
