<?xml version="1.0" encoding="UTF-8" standalone="no"?>
<!DOCTYPE svg PUBLIC "-//W3C//DTD SVG 1.1//EN"
 "http://www.w3.org/Graphics/SVG/1.1/DTD/svg11.dtd">
<!-- Generated by graphviz version 2.43.0 (0)
 -->
<!-- Title: %3 Pages: 1 -->
<svg width="198pt" height="44pt"
 viewBox="0.00 0.00 198.24 44.00" xmlns="http://www.w3.org/2000/svg" xmlns:xlink="http://www.w3.org/1999/xlink">
<g id="graph0" class="graph" transform="scale(1 1) rotate(0) translate(4 40)">
<title>%3</title>
<polygon fill="white" stroke="transparent" points="-4,4 -4,-40 194.24,-40 194.24,4 -4,4"/>
<!-- S -->
<g id="node1" class="node">
<title>S</title>
<ellipse fill="none" stroke="black" cx="27.24" cy="-17.64" rx="27" ry="18"/>
<text text-anchor="middle" x="27.24" y="-13.94" font-family="Times,serif" font-size="14.00">S</text>
</g>
<!-- S&#45;&gt;S -->
<g id="edge1" class="edge">
<title>S&#45;&gt;S</title>
<path fill="none" stroke="black" d="M54.03,-19.89C64.02,-19.96 72.24,-19.21 72.24,-17.64 72.24,-16.66 69.03,-16 64.18,-15.66"/>
<polygon fill="black" stroke="black" points="64.12,-12.16 54.03,-15.4 63.94,-19.15 64.12,-12.16"/>
<text text-anchor="middle" x="92.24" y="-13.94" font-family="Times,serif" font-size="14.00">0.2, &#39;A&#39;</text>
</g>
<!-- S&#45;&gt;S -->
<g id="edge2" class="edge">
<title>S&#45;&gt;S</title>
<path fill="none" stroke="black" d="M53.55,-22.28C92.33,-26.2 151.24,-24.65 151.24,-17.64 151.24,-11.23 102.02,-9.39 63.94,-12.11"/>
<polygon fill="black" stroke="black" points="63.21,-8.66 53.55,-13 63.81,-15.63 63.21,-8.66"/>
<text text-anchor="middle" x="170.74" y="-13.94" font-family="Times,serif" font-size="14.00">0.2, &#39;B&#39;</text>
</g>
<!-- S&#45;&gt;S -->
<g id="edge3" class="edge">
<title>S&#45;&gt;S</title>
<path fill="none" stroke="black" d="M54.08,-21.37C80.24,-23.13 112.24,-21.88 112.24,-17.64 112.24,-13.93 87.74,-12.51 64.09,-13.39"/>
<polygon fill="black" stroke="black" points="63.88,-9.9 54.08,-13.91 64.24,-16.89 63.88,-9.9"/>
<text text-anchor="middle" x="131.74" y="-13.94" font-family="Times,serif" font-size="14.00">0.6, &#39;C&#39;</text>
</g>
</g>
</svg>
