<?xml version="1.0" encoding="UTF-8" standalone="no"?>
<!DOCTYPE svg PUBLIC "-//W3C//DTD SVG 1.1//EN"
 "http://www.w3.org/Graphics/SVG/1.1/DTD/svg11.dtd">
<!-- Generated by graphviz version 2.43.0 (0)
 -->
<!-- Title: %3 Pages: 1 -->
<svg width="261pt" height="218pt"
 viewBox="0.00 0.00 261.00 218.00" xmlns="http://www.w3.org/2000/svg" xmlns:xlink="http://www.w3.org/1999/xlink">
<g id="graph0" class="graph" transform="scale(1 1) rotate(0) translate(4 214)">
<title>%3</title>
<polygon fill="white" stroke="transparent" points="-4,4 -4,-214 257,-214 257,4 -4,4"/>
<!-- A -->
<g id="node1" class="node">
<title>A</title>
<ellipse fill="none" stroke="black" cx="149" cy="-192" rx="27" ry="18"/>
<text text-anchor="middle" x="149" y="-188.3" font-family="Times,serif" font-size="14.00">A</text>
</g>
<!-- A&#45;&gt;A -->
<g id="edge1" class="edge">
<title>A&#45;&gt;A</title>
<path fill="none" stroke="black" d="M174.23,-198.94C193.04,-201.37 212,-199.05 212,-192 212,-186.21 199.24,-183.62 184.27,-184.21"/>
<polygon fill="black" stroke="black" points="183.9,-180.73 174.23,-185.06 184.49,-187.7 183.9,-180.73"/>
<text text-anchor="middle" x="232.5" y="-188.3" font-family="Times,serif" font-size="14.00">0.33, A</text>
</g>
<!-- B -->
<g id="node2" class="node">
<title>B</title>
<ellipse fill="none" stroke="black" cx="27" cy="-105" rx="27" ry="18"/>
<text text-anchor="middle" x="27" y="-101.3" font-family="Times,serif" font-size="14.00">B</text>
</g>
<!-- A&#45;&gt;B -->
<g id="edge2" class="edge">
<title>A&#45;&gt;B</title>
<path fill="none" stroke="black" d="M122.03,-191.2C94.52,-189.81 52.86,-182.98 31,-156 25.89,-149.7 23.97,-141.36 23.6,-133.3"/>
<polygon fill="black" stroke="black" points="27.1,-133.15 23.85,-123.07 20.1,-132.98 27.1,-133.15"/>
<text text-anchor="middle" x="51.5" y="-144.8" font-family="Times,serif" font-size="14.00">0.33, B</text>
</g>
<!-- C -->
<g id="node3" class="node">
<title>C</title>
<ellipse fill="none" stroke="black" cx="149" cy="-18" rx="27" ry="18"/>
<text text-anchor="middle" x="149" y="-14.3" font-family="Times,serif" font-size="14.00">C</text>
</g>
<!-- A&#45;&gt;C -->
<g id="edge3" class="edge">
<title>A&#45;&gt;C</title>
<path fill="none" stroke="black" d="M149,-173.88C149,-144 149,-82.11 149,-46.27"/>
<polygon fill="black" stroke="black" points="152.5,-46.05 149,-36.05 145.5,-46.05 152.5,-46.05"/>
<text text-anchor="middle" x="169.5" y="-101.3" font-family="Times,serif" font-size="14.00">0.33, C</text>
</g>
<!-- B&#45;&gt;A -->
<g id="edge4" class="edge">
<title>B&#45;&gt;A</title>
<path fill="none" stroke="black" d="M45.08,-118.59C65.56,-132.87 99.14,-156.26 122.57,-172.58"/>
<polygon fill="black" stroke="black" points="120.79,-175.61 131,-178.46 124.79,-169.87 120.79,-175.61"/>
<text text-anchor="middle" x="115.5" y="-144.8" font-family="Times,serif" font-size="14.00">0.33, A</text>
</g>
<!-- B&#45;&gt;B -->
<g id="edge5" class="edge">
<title>B&#45;&gt;B</title>
<path fill="none" stroke="black" d="M52.23,-111.94C71.04,-114.37 90,-112.05 90,-105 90,-99.21 77.24,-96.62 62.27,-97.21"/>
<polygon fill="black" stroke="black" points="61.9,-93.73 52.23,-98.06 62.49,-100.7 61.9,-93.73"/>
<text text-anchor="middle" x="110.5" y="-101.3" font-family="Times,serif" font-size="14.00">0.33, B</text>
</g>
<!-- B&#45;&gt;C -->
<g id="edge6" class="edge">
<title>B&#45;&gt;C</title>
<path fill="none" stroke="black" d="M23.85,-86.93C22.9,-76.34 23.65,-63.07 31,-54 50.3,-30.19 85.03,-22.07 111.83,-19.54"/>
<polygon fill="black" stroke="black" points="112.3,-23.01 122.03,-18.8 111.8,-16.03 112.3,-23.01"/>
<text text-anchor="middle" x="51.5" y="-57.8" font-family="Times,serif" font-size="14.00">0.33, C</text>
</g>
<!-- C&#45;&gt;A -->
<g id="edge7" class="edge">
<title>C&#45;&gt;A</title>
<path fill="none" stroke="black" d="M161.56,-34.11C166.49,-40.2 172.13,-47.34 177,-54 187.4,-68.23 193.89,-70.13 199,-87 203.64,-102.31 203.64,-107.69 199,-123 193.74,-140.37 181.86,-156.85 171.01,-169.24"/>
<polygon fill="black" stroke="black" points="168.29,-167.02 164.1,-176.75 173.44,-171.76 168.29,-167.02"/>
<text text-anchor="middle" x="222.5" y="-101.3" font-family="Times,serif" font-size="14.00">0.33, A</text>
</g>
<!-- C&#45;&gt;B -->
<g id="edge8" class="edge">
<title>C&#45;&gt;B</title>
<path fill="none" stroke="black" d="M130.92,-31.59C110.44,-45.87 76.86,-69.26 53.43,-85.58"/>
<polygon fill="black" stroke="black" points="51.21,-82.87 45,-91.46 55.21,-88.61 51.21,-82.87"/>
<text text-anchor="middle" x="115.5" y="-57.8" font-family="Times,serif" font-size="14.00">0.33, B</text>
</g>
<!-- C&#45;&gt;C -->
<g id="edge9" class="edge">
<title>C&#45;&gt;C</title>
<path fill="none" stroke="black" d="M174.23,-24.94C193.04,-27.37 212,-25.05 212,-18 212,-12.21 199.24,-9.62 184.27,-10.21"/>
<polygon fill="black" stroke="black" points="183.9,-6.73 174.23,-11.06 184.49,-13.7 183.9,-6.73"/>
<text text-anchor="middle" x="232.5" y="-14.3" font-family="Times,serif" font-size="14.00">0.33, C</text>
</g>
</g>
</svg>
