<?xml version="1.0" encoding="UTF-8" standalone="no"?>
<!DOCTYPE svg PUBLIC "-//W3C//DTD SVG 1.1//EN"
 "http://www.w3.org/Graphics/SVG/1.1/DTD/svg11.dtd">
<!-- Generated by graphviz version 2.43.0 (0)
 -->
<!-- Title: %3 Pages: 1 -->
<svg width="404pt" height="44pt"
 viewBox="0.00 0.00 404.00 44.00" xmlns="http://www.w3.org/2000/svg" xmlns:xlink="http://www.w3.org/1999/xlink">
<g id="graph0" class="graph" transform="scale(1 1) rotate(0) translate(4 40)">
<title>%3</title>
<polygon fill="white" stroke="transparent" points="-4,4 -4,-40 400,-40 400,4 -4,4"/>
<!-- S -->
<g id="node1" class="node">
<title>S</title>
<ellipse fill="none" stroke="black" cx="27" cy="-18" rx="27" ry="18"/>
<text text-anchor="middle" x="27" y="-14.3" font-family="Times,serif" font-size="14.00">S</text>
</g>
<!-- S&#45;&gt;S -->
<g id="edge1" class="edge">
<title>S&#45;&gt;S</title>
<path fill="none" stroke="black" d="M54.17,-19.3C100.86,-20.91 162,-20.47 162,-18 162,-15.7 109.16,-15.16 64.21,-16.39"/>
<polygon fill="black" stroke="black" points="64.06,-12.89 54.17,-16.7 64.27,-19.89 64.06,-12.89"/>
<text text-anchor="middle" x="171.5" y="-21.8" font-family="Times,serif" font-size="14.00">0.2</text>
<text text-anchor="middle" x="171.5" y="-6.8" font-family="Times,serif" font-size="14.00"> &#39;A&#39;</text>
</g>
<!-- S&#45;&gt;S -->
<g id="edge2" class="edge">
<title>S&#45;&gt;S</title>
<path fill="none" stroke="black" d="M53.93,-19.64C139.24,-23.94 270,-23.39 270,-18 270,-12.82 149.25,-12.11 64.13,-15.88"/>
<polygon fill="black" stroke="black" points="63.76,-12.39 53.93,-16.36 64.09,-19.38 63.76,-12.39"/>
<text text-anchor="middle" x="279" y="-21.8" font-family="Times,serif" font-size="14.00">0.2</text>
<text text-anchor="middle" x="279" y="-6.8" font-family="Times,serif" font-size="14.00"> &#39;B&#39;</text>
</g>
<!-- S&#45;&gt;S -->
<g id="edge3" class="edge">
<title>S&#45;&gt;S</title>
<path fill="none" stroke="black" d="M54.07,-19.81C176.6,-26.95 378,-26.35 378,-18 378,-9.88 187.46,-9.09 64.29,-15.62"/>
<polygon fill="black" stroke="black" points="63.86,-12.14 54.07,-16.19 64.24,-19.13 63.86,-12.14"/>
<text text-anchor="middle" x="387" y="-21.8" font-family="Times,serif" font-size="14.00">0.6</text>
<text text-anchor="middle" x="387" y="-6.8" font-family="Times,serif" font-size="14.00"> &#39;C&#39;</text>
</g>
</g>
</svg>
