<?xml version="1.0" standalone="no"?>
<!DOCTYPE svg PUBLIC "-//W3C//DTD SVG 20010904//EN"
 "http://www.w3.org/TR/2001/REC-SVG-20010904/DTD/svg10.dtd">
<svg version="1.0" xmlns="http://www.w3.org/2000/svg"
 width="700.000000pt" height="700.000000pt" viewBox="0 0 700.000000 700.000000"
 preserveAspectRatio="xMidYMid meet">
<metadata>
Created by potrace 1.14, written by Peter Selinger 2001-2017
</metadata>
<g transform="translate(0.000000,700.000000) scale(0.100000,-0.100000)"
fill="#000000" stroke="none">
<path d="M3285 6954 c-22 -2 -89 -9 -150 -14 -750 -73 -1487 -416 -2039 -950
-587 -567 -939 -1288 -1038 -2125 -19 -166 -16 -588 6 -760 56 -439 169 -811
360 -1180 493 -952 1380 -1613 2436 -1814 394 -75 877 -75 1270 0 854 163
1601 626 2120 1314 375 497 600 1062 676 1695 24 198 24 572 0 770 -80 670
-326 1261 -739 1778 -124 155 -374 407 -522 525 -509 407 -1082 651 -1730 738
-143 19 -548 33 -650 23z m625 -149 c720 -98 1340 -390 1869 -881 376 -349
698 -854 867 -1358 120 -360 168 -666 168 -1061 0 -243 -9 -367 -45 -575 -192
-1113 -959 -2068 -2010 -2500 -891 -366 -1900 -326 -2766 109 -549 275 -1037
729 -1349 1253 -301 506 -453 1030 -471 1618 -21 707 175 1381 567 1960 226
332 542 652 860 869 484 332 1019 525 1610 581 137 13 563 4 700 -15z"/>
<path d="M2392 6455 c-400 -61 -747 -251 -891 -489 -75 -124 -121 -343 -100
-475 18 -114 103 -238 221 -321 128 -90 240 -114 543 -114 404 0 587 48 753
199 110 100 158 211 149 344 -12 192 -107 308 -308 376 -71 24 -105 29 -219
32 -155 6 -250 -10 -340 -54 -60 -30 -211 -174 -244 -234 -18 -30 -12 -26 49
29 120 110 269 166 378 142 220 -47 340 -334 237 -567 -31 -69 -110 -145 -193
-184 -67 -32 -79 -34 -177 -34 -93 0 -112 3 -162 27 -146 68 -237 253 -238
481 0 160 35 280 124 417 113 174 265 282 475 337 121 32 334 37 443 10 244
-60 431 -189 567 -391 144 -213 253 -529 263 -766 l3 -65 -305 -6 c-438 -9
-521 -20 -909 -115 -586 -144 -953 -315 -1218 -568 -172 -164 -296 -351 -339
-511 -24 -92 -30 -356 -11 -480 69 -431 337 -735 809 -920 225 -88 487 -145
818 -181 237 -25 728 -30 975 -10 189 15 413 40 463 51 l22 5 0 -1040 0 -1040
183 2 182 3 2 40 c11 169 203 1180 288 1512 51 199 77 255 179 390 142 189
549 603 591 603 11 0 15 6 11 18 -3 9 -17 60 -32 112 -14 52 -28 96 -29 98 -1
2 -92 -25 -201 -58 -267 -83 -787 -231 -791 -226 -3 2 0 674 5 1493 l9 1489
35 54 c39 62 115 136 154 150 102 39 224 -34 273 -163 41 -112 53 -282 26
-373 -30 -101 -141 -208 -297 -287 l-85 -42 15 -31 14 -31 102 24 c138 32 283
79 331 108 192 112 293 429 201 632 -73 161 -259 261 -466 251 -95 -5 -180
-36 -257 -95 l-43 -33 0 180 0 180 -205 0 -205 0 -2 -576 -3 -576 -44 108
c-91 227 -222 479 -320 619 -175 250 -462 465 -701 526 -110 28 -415 35 -558
14z m1507 -1406 c63 -5 116 -11 119 -13 2 -2 6 -521 9 -1154 l6 -1150 -74 -17
c-486 -111 -658 -129 -1014 -105 -323 22 -486 72 -703 218 -206 138 -364 336
-437 553 -128 375 -26 855 248 1163 72 82 300 249 428 316 200 103 496 180
774 200 126 10 475 4 644 -11z m980 -2406 c-136 -142 -280 -339 -339 -464 -30
-66 -52 -153 -110 -444 l-29 -150 4 340 c3 187 5 397 5 468 0 98 3 127 13 127
7 0 119 38 248 84 128 46 238 85 244 85 5 1 -11 -20 -36 -46z"/>
</g>
</svg>
